<svg width="133" height="15" viewBox="0 0 133 15" fill="none" xmlns="http://www.w3.org/2000/svg">
<path d="M3.18 2.30002V5.80002H7.88001V8.02002H3.18V11.72H8.48001V14H0.380005V0.0200195H8.48001V2.30002H3.18Z" fill="#EB6D20"/>
<path d="M19.5445 5.68002V8.04002H11.0645V5.68002H19.5445Z" fill="#EB6D20"/>
<path d="M21.9647 8.46002C21.9647 7.31335 22.198 6.31335 22.6647 5.46002C23.1314 4.59335 23.778 3.92669 24.6047 3.46002C25.4314 2.98002 26.378 2.74002 27.4447 2.74002C28.818 2.74002 29.9514 3.08669 30.8447 3.78002C31.7514 4.46002 32.358 5.42002 32.6647 6.66002H29.6447C29.4847 6.18002 29.2114 5.80669 28.8247 5.54002C28.4514 5.26002 27.9847 5.12002 27.4247 5.12002C26.6247 5.12002 25.9914 5.41335 25.5247 6.00002C25.058 6.57335 24.8247 7.39335 24.8247 8.46002C24.8247 9.51335 25.058 10.3334 25.5247 10.92C25.9914 11.4934 26.6247 11.78 27.4247 11.78C28.558 11.78 29.298 11.2734 29.6447 10.26H32.6647C32.358 11.46 31.7514 12.4134 30.8447 13.12C29.938 13.8267 28.8047 14.18 27.4447 14.18C26.378 14.18 25.4314 13.9467 24.6047 13.48C23.778 13 23.1314 12.3334 22.6647 11.48C22.198 10.6134 21.9647 9.60669 21.9647 8.46002Z" fill="#EB6D20"/>
<path d="M39.6359 14.18C38.5693 14.18 37.6093 13.9467 36.7559 13.48C35.9026 13 35.2293 12.3267 34.7359 11.46C34.2559 10.5934 34.0159 9.59335 34.0159 8.46002C34.0159 7.32669 34.2626 6.32669 34.7559 5.46002C35.2626 4.59335 35.9493 3.92669 36.8159 3.46002C37.6826 2.98002 38.6493 2.74002 39.7159 2.74002C40.7826 2.74002 41.7493 2.98002 42.6159 3.46002C43.4826 3.92669 44.1626 4.59335 44.6559 5.46002C45.1626 6.32669 45.4159 7.32669 45.4159 8.46002C45.4159 9.59335 45.1559 10.5934 44.6359 11.46C44.1293 12.3267 43.4359 13 42.5559 13.48C41.6893 13.9467 40.7159 14.18 39.6359 14.18ZM39.6359 11.74C40.1426 11.74 40.6159 11.62 41.0559 11.38C41.5093 11.1267 41.8693 10.7534 42.1359 10.26C42.4026 9.76669 42.5359 9.16669 42.5359 8.46002C42.5359 7.40669 42.2559 6.60002 41.6959 6.04002C41.1493 5.46669 40.4759 5.18002 39.6759 5.18002C38.8759 5.18002 38.2026 5.46669 37.6559 6.04002C37.1226 6.60002 36.8559 7.40669 36.8559 8.46002C36.8559 9.51335 37.1159 10.3267 37.6359 10.9C38.1693 11.46 38.8359 11.74 39.6359 11.74Z" fill="#EB6D20"/>
<path d="M61.2299 2.76002C62.5899 2.76002 63.6832 3.18002 64.5098 4.02002C65.3498 4.84669 65.7699 6.00669 65.7699 7.50002V14H62.9698V7.88002C62.9698 7.01335 62.7498 6.35335 62.3098 5.90002C61.8699 5.43335 61.2699 5.20002 60.5098 5.20002C59.7499 5.20002 59.1432 5.43335 58.6898 5.90002C58.2498 6.35335 58.0299 7.01335 58.0299 7.88002V14H55.2299V7.88002C55.2299 7.01335 55.0098 6.35335 54.5698 5.90002C54.1298 5.43335 53.5298 5.20002 52.7698 5.20002C51.9965 5.20002 51.3832 5.43335 50.9298 5.90002C50.4898 6.35335 50.2698 7.01335 50.2698 7.88002V14H47.4698V2.92002H50.2698V4.26002C50.6298 3.79335 51.0898 3.42669 51.6498 3.16002C52.2232 2.89335 52.8498 2.76002 53.5299 2.76002C54.3965 2.76002 55.1698 2.94669 55.8498 3.32002C56.5299 3.68002 57.0565 4.20002 57.4298 4.88002C57.7898 4.24002 58.3098 3.72669 58.9898 3.34002C59.6832 2.95335 60.4299 2.76002 61.2299 2.76002Z" fill="#EB6D20"/>
<path d="M82.1869 2.76002C83.5469 2.76002 84.6402 3.18002 85.4669 4.02002C86.3069 4.84669 86.7269 6.00669 86.7269 7.50002V14H83.9269V7.88002C83.9269 7.01335 83.7069 6.35335 83.2669 5.90002C82.8269 5.43335 82.2269 5.20002 81.4669 5.20002C80.7069 5.20002 80.1002 5.43335 79.6469 5.90002C79.2069 6.35335 78.9869 7.01335 78.9869 7.88002V14H76.1869V7.88002C76.1869 7.01335 75.9669 6.35335 75.5269 5.90002C75.0869 5.43335 74.4869 5.20002 73.7269 5.20002C72.9536 5.20002 72.3402 5.43335 71.8869 5.90002C71.4469 6.35335 71.2269 7.01335 71.2269 7.88002V14H68.4269V2.92002H71.2269V4.26002C71.5869 3.79335 72.0469 3.42669 72.6069 3.16002C73.1802 2.89335 73.8069 2.76002 74.4869 2.76002C75.3535 2.76002 76.1269 2.94669 76.8069 3.32002C77.4869 3.68002 78.0135 4.20002 78.3869 4.88002C78.7469 4.24002 79.2669 3.72669 79.9469 3.34002C80.6402 2.95335 81.3869 2.76002 82.1869 2.76002Z" fill="#EB6D20"/>
<path d="M99.6839 8.22002C99.6839 8.62002 99.6572 8.98002 99.6039 9.30002H91.5039C91.5706 10.1 91.8506 10.7267 92.3439 11.18C92.8372 11.6334 93.4439 11.86 94.1639 11.86C95.2039 11.86 95.9439 11.4134 96.3839 10.52H99.4039C99.0839 11.5867 98.4706 12.4667 97.5639 13.16C96.6572 13.84 95.5439 14.18 94.2239 14.18C93.1572 14.18 92.1972 13.9467 91.3439 13.48C90.5039 13 89.8439 12.3267 89.3639 11.46C88.8972 10.5934 88.6639 9.59335 88.6639 8.46002C88.6639 7.31335 88.8972 6.30669 89.3639 5.44002C89.8306 4.57335 90.4839 3.90669 91.3239 3.44002C92.1639 2.97335 93.1306 2.74002 94.2239 2.74002C95.2773 2.74002 96.2172 2.96669 97.0439 3.42002C97.8839 3.87335 98.5306 4.52002 98.9839 5.36002C99.4506 6.18669 99.6839 7.14002 99.6839 8.22002ZM96.7839 7.42002C96.7706 6.70002 96.5106 6.12669 96.0039 5.70002C95.4972 5.26002 94.8772 5.04002 94.1439 5.04002C93.4506 5.04002 92.8639 5.25335 92.3839 5.68002C91.9172 6.09335 91.6306 6.67335 91.5239 7.42002H96.7839Z" fill="#EB6D20"/>
<path d="M104.528 4.64002C104.888 4.05335 105.354 3.59335 105.928 3.26002C106.514 2.92669 107.181 2.76002 107.928 2.76002V5.70002H107.188C106.308 5.70002 105.641 5.90669 105.188 6.32002C104.748 6.73335 104.528 7.45335 104.528 8.48002V14H101.728V2.92002H104.528V4.64002Z" fill="#EB6D20"/>
<path d="M109.094 8.46002C109.094 7.31335 109.327 6.31335 109.794 5.46002C110.26 4.59335 110.907 3.92669 111.734 3.46002C112.56 2.98002 113.507 2.74002 114.574 2.74002C115.947 2.74002 117.08 3.08669 117.974 3.78002C118.88 4.46002 119.487 5.42002 119.794 6.66002H116.774C116.614 6.18002 116.34 5.80669 115.954 5.54002C115.58 5.26002 115.114 5.12002 114.554 5.12002C113.754 5.12002 113.12 5.41335 112.654 6.00002C112.187 6.57335 111.954 7.39335 111.954 8.46002C111.954 9.51335 112.187 10.3334 112.654 10.92C113.12 11.4934 113.754 11.78 114.554 11.78C115.687 11.78 116.427 11.2734 116.774 10.26H119.794C119.487 11.46 118.88 12.4134 117.974 13.12C117.067 13.8267 115.934 14.18 114.574 14.18C113.507 14.18 112.56 13.9467 111.734 13.48C110.907 13 110.26 12.3334 109.794 11.48C109.327 10.6134 109.094 9.60669 109.094 8.46002Z" fill="#EB6D20"/>
<path d="M132.145 8.22002C132.145 8.62002 132.118 8.98002 132.065 9.30002H123.965C124.032 10.1 124.312 10.7267 124.805 11.18C125.298 11.6334 125.905 11.86 126.625 11.86C127.665 11.86 128.405 11.4134 128.845 10.52H131.865C131.545 11.5867 130.932 12.4667 130.025 13.16C129.118 13.84 128.005 14.18 126.685 14.18C125.618 14.18 124.658 13.9467 123.805 13.48C122.965 13 122.305 12.3267 121.825 11.46C121.358 10.5934 121.125 9.59335 121.125 8.46002C121.125 7.31335 121.358 6.30669 121.825 5.44002C122.292 4.57335 122.945 3.90669 123.785 3.44002C124.625 2.97335 125.592 2.74002 126.685 2.74002C127.738 2.74002 128.678 2.96669 129.505 3.42002C130.345 3.87335 130.992 4.52002 131.445 5.36002C131.912 6.18669 132.145 7.14002 132.145 8.22002ZM129.245 7.42002C129.232 6.70002 128.972 6.12669 128.465 5.70002C127.958 5.26002 127.338 5.04002 126.605 5.04002C125.912 5.04002 125.325 5.25335 124.845 5.68002C124.378 6.09335 124.092 6.67335 123.985 7.42002H129.245Z" fill="#EB6D20"/>
</svg>
